<svg viewBox="0 0 210 210" xmlns="http://www.w3.org/2000/svg">
  <path fill="#000000" d="M 30,0 V 10 H 40 V 80 H 20 V 130 H 30 V 100 H 40 V 140 L 0,140 v 10 l 30,0 h 10 v 60 H 50 v -60 H 60 V 150 l -10,-10 L 50,10 H 60 V 0 Z"/>
  <path fill="#000000" d="m 70,0 v 20 10 L 80,40 V 100 L 75,105 l 5,5 v 15 L 85,130 l 5,-5 V 40 L 100,30 V 0 h -10 v 25 l -5,5 L 80,25 V 0 Z"/>
  <path fill="#000000" d="m 60,80 h 10 v 15 l -5,5 h -5 z"/>
  <path fill="#000000" d="m 60,110 0,25 10,10 0,65 H 100 v -10 H 80 v -20 h 10 v -10 H 80 v -20 H 95 L 110,135 v -25 h -10 v 20 l -10,10 -10,0 -10,-10 0,-20 z"/>
  <path fill="#000000" d="m 100,80 v 20 h 10 V 85 l -5,-5 z"/>
  <path fill="#000000" fill-rule="evenodd" d="m 110,0 v 70 l 10,10 v 60 l -10,10 v 50 l 10,10 h 10 l 10,-10 v -10 h -10 v 5 l -5,5 -5,-5 v -40 l 5,-5 5,5 v 5 h 10 v -10 l -10,-10 V 75 L 120,65 V 40 h 20 V 0 Z M 120,10 h 10 V 30 h -10 Z"/>
  <path fill="#000000" fill-rule="evenodd" d="m 150,0 v 60 l 10,10 V 110 h -20 v 25 l 10,10 v 65 h 10 v -30 h 10 v 30 h 10 v -60 l 10,-10 V 110 h -10 v 25 l -10,10 v 25 h -10 v -30 L 170,130 V 70 l 10,-10 V 0 Z M 160,10 V 55 l 5,5 5,-5 V 10 Z"/>
  <path fill="#000000" d="m 140,80 h 10 v 20 h -10 z"/>
  <path fill="#000000" d="m 180,75 v 25 h 10 l 0,-20 20,-20 0,-15 z"/>
</svg>
